<svg xmlns="http://www.w3.org/2000/svg" version="1.1" xmlns:xlink="http://www.w3.org/1999/xlink" xmlns:svgjs="http://svgjs.com/svgjs" width="1000" height="1000"><rect width="1000" height="1000" rx="200" ry="200" fill="#555555"></rect><g transform="matrix(2.6696032302199084,0,0,2.6696032302199084,99.9939772214866,123.64157002396496)"><svg xmlns="http://www.w3.org/2000/svg" version="1.1" xmlns:xlink="http://www.w3.org/1999/xlink" xmlns:svgjs="http://svgjs.com/svgjs" width="299.67" height="281.95"><svg id="Layer_1" data-name="Layer 1" xmlns="http://www.w3.org/2000/svg" viewBox="0 0 299.67 281.95"><defs><style>.cls-1{fill:#231f20;stroke-linejoin:bevel;stroke-width:12px;}.cls-1,.cls-4{stroke:#fff;}.cls-2,.cls-4,.cls-5{fill:none;}.cls-2{stroke:#f6c614;}.cls-3{fill:#f6c614;}.cls-4,.cls-5{stroke-miterlimit:10;}.cls-4{stroke-width:28px;}.cls-5{stroke:#231f20;stroke-width:5px;}</style></defs><path class="cls-1" d="M293.57,220q0,35.06-30.78,54t-82.56,19a276.14,276.14,0,0,1-33.1-1.52C95.62,285.5,39.77,259,9.86,243.22,4,240.11,4.82,232,11.23,230L21,226.9a8.38,8.38,0,0,1,4.91,0l89.12,27a4.84,4.84,0,0,0,.51.14q10.49,2.49,25.89,5.48a165.55,165.55,0,0,0,31.81,3q23.7,0,37.74-3.75t20.74-10.73a33.19,33.19,0,0,0,8.89-17.52,131.68,131.68,0,0,0,1.93-24V58.56a7.57,7.57,0,0,0-7.81-7.29H169.24A7.56,7.56,0,0,1,161.43,44V30.31A7.56,7.56,0,0,1,169.24,23H285.76a7.56,7.56,0,0,1,7.81,7.28Z" transform="translate(0.1 -17.03)"></path><path class="cls-2" d="M293.57,220q0,35.06-30.78,54t-82.56,19a276.14,276.14,0,0,1-33.1-1.52C95.62,285.5,39.77,259,9.86,243.22,4,240.11,4.82,232,11.23,230L21,226.9a8.38,8.38,0,0,1,4.91,0l89.12,27a4.84,4.84,0,0,0,.51.14q10.49,2.49,25.89,5.48a165.55,165.55,0,0,0,31.81,3q23.7,0,37.74-3.75t20.74-10.73a33.19,33.19,0,0,0,8.89-17.52,131.68,131.68,0,0,0,1.93-24V58.56a7.57,7.57,0,0,0-7.81-7.29H169.24A7.56,7.56,0,0,1,161.43,44V30.31A7.56,7.56,0,0,1,169.24,23H285.76a7.56,7.56,0,0,1,7.81,7.28Z" transform="translate(0.1 -17.03)"></path><path class="cls-2" d="M293.57,220q0,35.06-30.78,54t-82.56,19a276.14,276.14,0,0,1-33.1-1.52C95.62,285.5,39.77,259,9.86,243.22,4,240.11,4.82,232,11.23,230L21,226.9a8.38,8.38,0,0,1,4.91,0l89.12,27a4.84,4.84,0,0,0,.51.14q10.49,2.49,25.89,5.48a165.55,165.55,0,0,0,31.81,3q23.7,0,37.74-3.75t20.74-10.73a33.19,33.19,0,0,0,8.89-17.52,131.68,131.68,0,0,0,1.93-24V58.56a7.57,7.57,0,0,0-7.81-7.29H169.24A7.56,7.56,0,0,1,161.43,44V30.31A7.56,7.56,0,0,1,169.24,23H285.76a7.56,7.56,0,0,1,7.81,7.28Z" transform="translate(0.1 -17.03)"></path><circle class="cls-3" cx="148.57" cy="134.29" r="74.7"></circle><circle class="cls-4" cx="148.57" cy="134.29" r="74.7"></circle><circle class="cls-5" cx="148.57" cy="134.29" r="74.7"></circle><path class="cls-5" d="M148.47,151.31" transform="translate(0.1 -17.03)"></path><path class="cls-5" d="M73.76,151.31H223.17" transform="translate(0.1 -17.03)"></path><path class="cls-5" d="M147.39,224.7V75.3" transform="translate(0.1 -17.03)"></path></svg></svg></g></svg>